<?xml version="1.0" encoding="UTF-8" standalone="no"?>
<!-- Created with Inkscape (http://www.inkscape.org/) -->

<svg
   width="210mm"
   height="297mm"
   viewBox="0 0 210 297"
   version="1.1"
   id="svg793"
   xmlns="http://www.w3.org/2000/svg"
   xmlns:svg="http://www.w3.org/2000/svg">
  <defs
     id="defs790" />
  <g
     id="layer1">
    <path
       id="rect436"
       style="fill:#0000ff;stroke-width:0.277365"
       d="m 106.25088,114.12792 c -21.319671,0 -38.48344,12.92855 -38.48344,28.98789 v 33.3928 c 2.030387,-0.29761 4.11399,-0.45476 6.239929,-0.45476 h 67.481151 c 1.09371,0 2.17572,0.0432 3.2458,0.12351 v -33.06155 c 0,-16.05934 -17.16377,-28.98789 -38.48344,-28.98789 z" />
    <rect
       style="fill:#00ffff;stroke-width:0.273394"
       id="rect597"
       width="21.055969"
       height="37.863804"
       x="95.722893"
       y="138.34143"
       rx="0"
       ry="0" />
    <g
       id="g1545"
       transform="matrix(0.9935512,0,0,0.90808314,6.8837182,12.613098)">
      <rect
         style="fill:#aa4400;stroke-width:0.132713"
         id="rect1541"
         width="32.173302"
         height="58.391651"
         x="68.099197"
         y="-145.85693"
         ry="16.086651"
         transform="matrix(-0.010536,0.99994449,-0.99989319,-0.01461506,0,0)"
         rx="16.086651" />
      <rect
         style="fill:#aa4400;stroke-width:0.132713"
         id="rect1487"
         width="32.173302"
         height="58.391651"
         x="68.905876"
         y="-115.94059"
         ry="16.086651"
         transform="matrix(-0.010536,0.99994449,-0.99989319,-0.01461506,0,0)"
         rx="16.086651" />
    </g>
    <g
       id="g377"
       transform="translate(-1.2929105,3.3246269)">
      <path
         id="path1194"
         style="fill:#2b0000;stroke-width:0.138362"
         d="M 67.162586,65.693649 V 49.498796 A 22.606483,22.606483 54.788471 0 1 85.596611,75.619532 V 87.896275 A 20.405512,20.405512 50.298396 0 1 67.162586,65.693649 Z" />
      <circle
         style="fill:#2b0000;stroke-width:0.264583"
         id="path373"
         cx="74.966515"
         cy="51.719055"
         r="11.231915" />
    </g>
    <path
       id="path379"
       style="fill:#2b0000;stroke-width:0.138362"
       d="M 143.10934,69.611759 V 53.416906 a 22.606481,22.606481 125.21152 0 0 -18.43402,26.120736 v 12.276743 a 20.40551,20.40551 129.7016 0 0 18.43402,-22.202626 z" />
    <circle
       style="fill:#2b0000;stroke-width:0.264583"
       id="circle381"
       cx="-133.4584"
       cy="55.267765"
       r="11.231915"
       transform="scale(-1,1)" />
    <rect
       style="fill:#ff7f2a;stroke-width:0.135382"
       id="rect434"
       width="41.229099"
       height="47.417355"
       x="85.390976"
       y="97.933136"
       ry="19.398052"
       rx="20.61455" />
    <rect
       style="fill:#ff9955;stroke-width:0.252266"
       id="rect1327"
       width="70.001862"
       height="96.968285"
       x="72.033585"
       y="41.373127"
       ry="39.668934"
       rx="35.000931" />
    <path
       id="rect1549"
       style="fill:#000000;stroke-width:0.160611"
       d="m 85.598393,102.13227 c 2.543994,10.80158 11.150636,18.70842 21.435897,18.70842 10.28529,0 18.89244,-7.9068 21.43642,-18.70842 z" />
    <path
       id="path177"
       style="fill:#ff0000;stroke-width:0.160611"
       d="m 105.9894,107.09527 c -5.64223,0 -10.779294,2.37979 -14.687479,6.31124 4.014042,4.59657 9.571649,7.43418 15.732369,7.43418 5.64236,0 10.77913,-2.38017 14.68748,-6.31176 -4.01415,-4.59624 -9.57188,-7.43366 -15.73237,-7.43366 z" />
    <path
       id="path182"
       style="fill:#ffffff;fill-opacity:1;stroke-width:0.334793"
       d="m 90.215929,102.13227 c -1.291087,2.6659 -0.0012,4.12585 1.502751,4.56096 h 30.63174 c 2.35289,-0.79427 2.58161,-3.10313 1.50275,-4.56096 z" />
    <g
       id="g1133"
       transform="translate(-0.0605011,0.35628962)">
      <path
         style="fill:#2b0000;fill-opacity:1;stroke-width:0.264583"
         id="path1075"
         d="m 103.96053,77.382683 a 8.0321264,10.905408 0 0 1 -6.970047,10.80965 8.0321264,10.905408 0 0 1 -8.81333,-7.950961 8.0321264,10.905408 0 0 1 4.639302,-12.912338 8.0321264,10.905408 0 0 1 10.040225,4.536199 l -6.928274,5.51745 z" />
      <path
         style="fill:#2b0000;fill-opacity:1;stroke-width:0.264583"
         id="path1129"
         d="m 126.29375,76.860268 a 8.0321264,10.905408 0 0 1 -6.97005,10.80965 8.0321264,10.905408 0 0 1 -8.81333,-7.950961 8.0321264,10.905408 0 0 1 4.63931,-12.912339 8.0321264,10.905408 0 0 1 10.04022,4.5362 l -6.92827,5.51745 z" />
    </g>
    <path
       id="path1200"
       style="fill:#2b0000;stroke-width:0.17558"
       d="m 101.60966,40.095327 h 38.39747 a 22.760379,22.760379 144.24319 0 1 -26.12074,18.808956 l -34.479352,0 A 20.575877,20.575877 139.73039 0 1 101.60966,40.095327 Z" />
    <path
       id="path313"
       style="fill:#2b0000;stroke-width:0.193386"
       d="M 88.790225,36.556384 137.40352,23.895023 A 20.566172,20.566172 126.89111 0 1 119.00041,48.413586 L 74.178727,60.087419 A 18.581625,18.581625 121.83804 0 1 88.790225,36.556384 Z" />
    <circle
       style="fill:#2b0000;stroke-width:0.0922964"
       id="circle389-5"
       cx="-107.61743"
       cy="91.944992"
       r="3.9181094"
       transform="scale(-1,1)" />
  </g>
</svg>
